<svg xmlns="http://www.w3.org/2000/svg" width="24" height="24"><path fill="#95a5a6" d="M3 3v10c0 4.2 3.632 8 9 10 5.368-2 9-5.8 9-10V3z"/><path fill="#ecf0f1" d="M3 2v10c0 4.2 3.632 8 9 10 5.368-2 9-5.8 9-10V2z"/><path fill="#bdc3c7" d="M3 2v10c0 4.2 3.632 8 9 10V2z"/><path fill="#27ae60" d="M5 4v8c0 3.4 2.825 6.4 7 8 4.175-1.6 7-4.6 7-8V4z"/><path fill="#2ecc71" d="M12 4v16c4.175-1.6 7-4.6 7-8V4z"/><path d="M8.475 16.726v-2.16h2.37V8.22H8.79V6.57q.9-.165 1.53-.405.645-.24 1.23-.615h1.965v9.015h2.01v2.16z" aria-label="1" style="font-size:15px;font-family:&quot;Source Han Sans SC VF&quot;;-inkscape-font-specification:&quot;Source Han Sans SC VF, @wght=900&quot;;font-variation-settings:&quot;wght&quot;900;text-align:center;text-anchor:middle;fill:#ececec;stroke:#000;stroke-width:.138;stroke-linecap:round;stroke-linejoin:round;paint-order:markers stroke fill"/></svg>